<svg width="30" height="30" viewBox="0 0 30 30" fill="none" xmlns="http://www.w3.org/2000/svg">
<path fill-rule="evenodd" clip-rule="evenodd" d="M15.265 29.5681C17.1505 29.5681 19.0175 29.1967 20.7594 28.4752C22.5013 27.7537 24.0841 26.6961 25.4173 25.3629C26.7506 24.0297 27.8081 22.4469 28.5297 20.705C29.2512 18.963 29.6226 17.096 29.6226 15.2106C29.6226 13.3251 29.2512 11.4581 28.5297 9.71618C27.8081 7.97424 26.7506 6.39148 25.4173 5.05825C24.0841 3.72503 22.5013 2.66746 20.7594 1.94593C19.0175 1.2244 17.1505 0.853027 15.265 0.853027C11.4572 0.853027 7.80526 2.36569 5.1127 5.05825C2.42014 7.75082 0.907471 11.4027 0.907471 15.2106C0.907471 19.0184 2.42014 22.6703 5.1127 25.3629C7.80526 28.0554 11.4572 29.5681 15.265 29.5681ZM14.8949 21.0174L22.8713 11.4457L20.421 9.40374L13.5613 17.6338L10.0117 14.0827L7.75602 16.3384L12.5419 21.1243L13.7766 22.359L14.8949 21.0174Z" fill="#279C00"/>
</svg>
