<svg width="18" height="24" viewBox="0 0 18 24" fill="none" xmlns="http://www.w3.org/2000/svg">
<path d="M8.31844 12.545H4.91044V10.636H8.32044V12.546L8.31844 12.545ZM11.7284 0V6H17.7284L11.7284 0ZM13.0914 10.636H9.68144V12.546H13.0914V10.636ZM13.0914 13.909H9.68144V15.819H13.0914V13.909ZM17.7274 6.5V22.364C17.7274 23.268 16.9954 24 16.0914 24H1.90944C1.69459 24 1.48186 23.9577 1.28337 23.8755C1.08488 23.7933 0.904528 23.6727 0.752611 23.5208C0.445801 23.214 0.273438 22.7979 0.273438 22.364V1.636C0.273438 0.732 1.00544 0 1.90944 0H11.2274V6.5H17.7274ZM14.4544 9.273H3.54544V17.182H14.4554V9.272L14.4544 9.273ZM8.31844 13.909H4.91044V15.819H8.32044V13.909H8.31844Z" fill="#0FA958"/>
</svg>
