<svg width="950" height="834" fill="none" xmlns="http://www.w3.org/2000/svg"><g filter="url(#a)" clip-path="url(#b)"><path d="M857.851 474.246c11.529 0 20.932-9.353 20.337-20.867a404.132 404.132 0 0 0-689.354-264.895A404.13 404.13 0 0 0 71.005 453.379c-.594 11.514 8.808 20.867 20.337 20.867s20.812-9.356 21.476-20.866a362.383 362.383 0 0 1 361.779-341.513A362.382 362.382 0 0 1 836.375 453.38c.664 11.51 9.947 20.866 21.476 20.866Z" fill="url(#c)"/></g><defs><linearGradient id="c" x1="454.547" y1="202.073" x2="474.597" y2="878.376" gradientUnits="userSpaceOnUse"><stop stop-color="#CFCFCF"/><stop offset=".97" stop-color="#fff"/></linearGradient><clipPath id="b"><path fill="#fff" transform="translate(-485 -246)" d="M0 0h1920v1080H0z"/></clipPath><filter id="a" x="-10.59" y="63.175" width="894.879" height="477.889" filterUnits="userSpaceOnUse" color-interpolation-filters="sRGB"><feFlood flood-opacity="0" result="BackgroundImageFix"/><feColorMatrix in="SourceAlpha" values="0 0 0 0 0 0 0 0 0 0 0 0 0 0 0 0 0 0 127 0" result="hardAlpha"/><feOffset dx="-3.471" dy="2.603"/><feGaussianBlur stdDeviation="4.773"/><feColorMatrix values="0 0 0 0 0 0 0 0 0 0 0 0 0 0 0 0 0 0 0.04 0"/><feBlend in2="BackgroundImageFix" result="effect1_dropShadow_583_35"/><feColorMatrix in="SourceAlpha" values="0 0 0 0 0 0 0 0 0 0 0 0 0 0 0 0 0 0 127 0" result="hardAlpha"/><feOffset dx="-13.884" dy="10.413"/><feGaussianBlur stdDeviation="8.678"/><feColorMatrix values="0 0 0 0 0 0 0 0 0 0 0 0 0 0 0 0 0 0 0.04 0"/><feBlend in2="effect1_dropShadow_583_35" result="effect2_dropShadow_583_35"/><feColorMatrix in="SourceAlpha" values="0 0 0 0 0 0 0 0 0 0 0 0 0 0 0 0 0 0 127 0" result="hardAlpha"/><feOffset dx="-31.239" dy="22.562"/><feGaussianBlur stdDeviation="11.281"/><feColorMatrix values="0 0 0 0 0 0 0 0 0 0 0 0 0 0 0 0 0 0 0.02 0"/><feBlend in2="effect2_dropShadow_583_35" result="effect3_dropShadow_583_35"/><feColorMatrix in="SourceAlpha" values="0 0 0 0 0 0 0 0 0 0 0 0 0 0 0 0 0 0 127 0" result="hardAlpha"/><feOffset dx="-54.669" dy="39.917"/><feGaussianBlur stdDeviation="13.45"/><feColorMatrix values="0 0 0 0 0 0 0 0 0 0 0 0 0 0 0 0 0 0 0.01 0"/><feBlend in2="effect3_dropShadow_583_35" result="effect4_dropShadow_583_35"/><feBlend in="SourceGraphic" in2="effect4_dropShadow_583_35" result="shape"/></filter></defs></svg>