<svg width="74" height="70" fill="none" xmlns="http://www.w3.org/2000/svg"><path d="M47.5 46.402c.58.511 1.469.46 1.938-.155a19.565 19.565 0 0 0 1.544-21.371c-.375-.676-1.247-.855-1.895-.433-.647.423-.823 1.288-.455 1.968a16.764 16.764 0 0 1-1.3 17.978c-.46.62-.411 1.501.169 2.013Z" fill="url(#a)"/><path d="M55.62 50.487c.67.602 1.706.551 2.263-.157a24.783 24.783 0 0 0 2.235-27.287c-.435-.79-1.449-1.009-2.208-.523-.758.486-.974 1.492-.547 2.285a21.52 21.52 0 0 1-1.911 23.338c-.55.713-.502 1.741.168 2.344Z" fill="url(#b)"/><path d="M22.007 24.421c-.684-.36-1.536-.101-1.847.606a19.563 19.563 0 0 0 3.515 21.136c.524.569 1.414.539 1.943-.024.53-.563.498-1.445-.019-2.02a16.765 16.765 0 0 1-2.957-17.78c.303-.711.048-1.556-.635-1.918Z" fill="url(#c)"/><path d="M13.453 22.9c-.788-.438-1.787-.155-2.171.66a24.783 24.783 0 0 0 3.94 27.094c.6.671 1.637.657 2.268.014.63-.643.615-1.672.021-2.35a21.52 21.52 0 0 1-3.369-23.172c.376-.818.098-1.81-.69-2.247Z" fill="url(#d)"/><circle cx="36.044" cy="35.178" r="7.209" fill="url(#e)"/><defs><linearGradient id="a" x1="46.83" y1="19.714" x2="20.936" y2="49.048" gradientUnits="userSpaceOnUse"><stop stop-color="#EC4646"/><stop offset="1" stop-color="#CACACA"/></linearGradient><linearGradient id="b" x1="54.989" y1="16.578" x2="21.832" y2="53.422" gradientUnits="userSpaceOnUse"><stop stop-color="#EC4646"/><stop offset="1" stop-color="#CACACA"/></linearGradient><linearGradient id="c" x1="20.779" y1="29.667" x2="35.196" y2="54.261" gradientUnits="userSpaceOnUse"><stop stop-color="#EC4646"/><stop offset="1" stop-color="#CACACA"/></linearGradient><linearGradient id="d" x1="13.994" y1="28.849" x2="25.867" y2="58.957" gradientUnits="userSpaceOnUse"><stop stop-color="#EC4646"/><stop offset="1" stop-color="#CACACA"/></linearGradient><linearGradient id="e" x1="36.044" y1="27.969" x2="36.044" y2="50.643" gradientUnits="userSpaceOnUse"><stop stop-color="#EC4646"/><stop offset="1" stop-color="#fff"/></linearGradient></defs></svg>